<svg width="16" height="16" viewBox="0 0 16 16" fill="none" xmlns="http://www.w3.org/2000/svg">
<path d="M7.33337 11.3333H8.66671V7.33331H7.33337V11.3333ZM8.00004 5.99998C8.18893 5.99998 8.34738 5.93598 8.47538 5.80798C8.60338 5.67998 8.66715 5.52176 8.66671 5.33331C8.66626 5.14487 8.60226 4.98665 8.47471 4.85865C8.34715 4.73065 8.18893 4.66665 8.00004 4.66665C7.81115 4.66665 7.65293 4.73065 7.52537 4.85865C7.39782 4.98665 7.33382 5.14487 7.33337 5.33331C7.33293 5.52176 7.39693 5.6802 7.52537 5.80865C7.65382 5.93709 7.81204 6.00087 8.00004 5.99998ZM8.00004 14.6666C7.07782 14.6666 6.21115 14.4915 5.40004 14.1413C4.58893 13.7911 3.88338 13.3162 3.28338 12.7166C2.68338 12.1171 2.20849 11.4115 1.85871 10.6C1.50893 9.78842 1.33382 8.92176 1.33337 7.99998C1.33293 7.0782 1.50804 6.21154 1.85871 5.39998C2.20937 4.58842 2.68426 3.88287 3.28338 3.28331C3.88249 2.68376 4.58804 2.20887 5.40004 1.85865C6.21204 1.50842 7.07871 1.33331 8.00004 1.33331C8.92137 1.33331 9.78804 1.50842 10.6 1.85865C11.412 2.20887 12.1176 2.68376 12.7167 3.28331C13.3158 3.88287 13.7909 4.58842 14.142 5.39998C14.4932 6.21154 14.668 7.0782 14.6667 7.99998C14.6654 8.92176 14.4903 9.78842 14.1414 10.6C13.7925 11.4115 13.3176 12.1171 12.7167 12.7166C12.1158 13.3162 11.4103 13.7913 10.6 14.142C9.78982 14.4926 8.92315 14.6675 8.00004 14.6666ZM8.00004 13.3333C9.48893 13.3333 10.75 12.8166 11.7834 11.7833C12.8167 10.75 13.3334 9.48887 13.3334 7.99998C13.3334 6.51109 12.8167 5.24998 11.7834 4.21665C10.75 3.18331 9.48893 2.66665 8.00004 2.66665C6.51115 2.66665 5.25004 3.18331 4.21671 4.21665C3.18337 5.24998 2.66671 6.51109 2.66671 7.99998C2.66671 9.48887 3.18337 10.75 4.21671 11.7833C5.25004 12.8166 6.51115 13.3333 8.00004 13.3333Z" fill="black"/>
</svg>
