<svg width="16" height="16" viewBox="0 0 16 16" fill="none" xmlns="http://www.w3.org/2000/svg">
<path d="M3.6 2H12.4C12.8243 2 13.2313 2.16857 13.5314 2.46863C13.8314 2.76869 14 3.17565 14 3.6V12.4C14 12.8243 13.8314 13.2313 13.5314 13.5314C13.2313 13.8314 12.8243 14 12.4 14H3.6C3.17565 14 2.76869 13.8314 2.46863 13.5314C2.16857 13.2313 2 12.8243 2 12.4V3.6C2 3.38989 2.04139 3.18183 2.12179 2.98771C2.2022 2.79359 2.32006 2.6172 2.46863 2.46863C2.76869 2.16857 3.17565 2 3.6 2Z" stroke="black" stroke-miterlimit="10" stroke-linecap="round" stroke-linejoin="round"/>
</svg>
