<svg width="16" height="16" viewBox="0 0 16 16" fill="none" xmlns="http://www.w3.org/2000/svg">
<path d="M2.03098 6.75627L1.20111 14.2229L2.26138 14.3413L3.09125 6.8736L2.03098 6.75627ZM2.79151 16H13.2086V14.9333H2.79151V16ZM14.799 14.2229L13.9691 6.75627L12.9088 6.8736L13.7387 14.3413L14.799 14.2229ZM12.3776 5.33333H3.62245V6.4H12.3798L12.3776 5.33333ZM13.9691 6.75627C13.9255 6.36496 13.7392 6.00346 13.4458 5.74093C13.1524 5.4784 12.7714 5.33328 12.3776 5.33333L12.3787 6.4C12.51 6.39999 12.6367 6.44841 12.7345 6.536C12.8323 6.62358 12.8944 6.74417 12.9088 6.87467L13.9691 6.75627ZM13.2086 16C13.4336 15.9999 13.656 15.9523 13.8613 15.8604C14.0667 15.7685 14.2504 15.6343 14.4004 15.4666C14.5503 15.2989 14.6633 15.1015 14.7318 14.8872C14.8003 14.6729 14.8239 14.4465 14.799 14.2229L13.7387 14.3413C13.7471 14.416 13.7397 14.4904 13.7169 14.562C13.6941 14.6335 13.6564 14.6995 13.6064 14.7554C13.5563 14.8114 13.495 14.8562 13.4265 14.8869C13.3579 14.9175 13.2837 14.9334 13.2086 14.9333V16ZM1.20111 14.2229C1.1762 14.4466 1.19877 14.6731 1.26734 14.8874C1.33591 15.1018 1.44893 15.2993 1.59903 15.467C1.74913 15.6347 1.93292 15.7689 2.13841 15.8607C2.34389 15.9526 2.56644 16 2.79151 16V14.9333C2.71652 14.9333 2.64237 14.9175 2.5739 14.8869C2.50544 14.8563 2.44419 14.8117 2.39416 14.7558C2.34414 14.6999 2.30645 14.6341 2.28357 14.5627C2.26069 14.4913 2.25313 14.4159 2.26138 14.3413L1.20111 14.2229ZM3.09125 6.8736C3.10593 6.74329 3.16811 6.62296 3.2659 6.5356C3.3637 6.44824 3.49131 6.39996 3.62245 6.4V5.33333C3.2289 5.33354 2.84817 5.47878 2.55497 5.74128C2.26177 6.00379 2.07453 6.36514 2.03098 6.75627L3.09125 6.8736ZM5.33338 4.26667V3.73333H4.26671V4.26667H5.33338ZM10.6667 3.73333V4.26667H11.7334V3.73333H10.6667ZM8.00005 1.06667C8.70729 1.06667 9.38557 1.34762 9.88566 1.84772C10.3858 2.34781 10.6667 3.02609 10.6667 3.73333H11.7334C11.7334 2.74319 11.34 1.7936 10.6399 1.09347C9.93978 0.393332 8.99019 0 8.00005 0V1.06667ZM5.33338 3.73333C5.33338 3.02609 5.61433 2.34781 6.11443 1.84772C6.61452 1.34762 7.2928 1.06667 8.00005 1.06667V0C7.0099 0 6.06032 0.393332 5.36018 1.09347C4.66004 1.7936 4.26671 2.74319 4.26671 3.73333H5.33338Z" fill="black"/>
</svg>
