<svg width="400" height="89" viewBox="0 0 400 89" fill="none" xmlns="http://www.w3.org/2000/svg">
<g clip-path="url(#clip0_199_241)">
<path d="M0 0.921509V8.74545H10.3892V48.2337H19.9779V8.74545H30.3641V0.921509H0Z" fill="#202020"/>
<path d="M34.1696 14.6848C34.4952 11.6586 35.242 9.07246 36.3682 6.89947C37.4973 4.72649 39.1342 3.04398 41.2641 1.83115C43.3939 0.618323 46.2496 0.00299072 49.852 0.00299072C53.4545 0.00299072 56.3132 0.618323 58.44 1.83115C60.5699 3.04398 62.2068 4.72649 63.3359 6.89947C64.4651 9.07246 65.1909 11.6616 65.5374 14.6848C65.863 17.7079 66.0273 21.0224 66.0273 24.5866C66.0273 28.1507 65.863 31.5217 65.5374 34.527C65.2089 37.5323 64.4651 40.1215 63.3359 42.2766C62.2068 44.4496 60.5699 46.0965 58.44 47.2379C56.3132 48.3794 53.4545 48.9591 49.852 48.9591C46.2496 48.9591 43.3939 48.3794 41.2641 47.2379C39.1342 46.0965 37.5003 44.4318 36.3682 42.2766C35.242 40.1037 34.5132 37.5323 34.1696 34.527C33.8411 31.5217 33.6768 28.2072 33.6768 24.5866C33.6768 20.9659 33.8411 17.7079 34.1696 14.6848ZM43.5014 32.6989C43.6657 34.9253 43.9764 36.7357 44.4304 38.1298C44.9024 39.524 45.5595 40.5377 46.4318 41.1708C47.307 41.804 48.4332 42.131 49.852 42.131C51.2709 42.131 52.418 41.804 53.2723 41.1708C54.1475 40.5377 54.8017 39.5062 55.2737 38.1298C55.7456 36.7357 56.0563 34.9253 56.1997 32.6989C56.364 30.4724 56.4387 27.7554 56.4387 24.5866C56.4387 21.4178 56.364 18.7216 56.1997 16.4921C56.0354 14.2835 55.7277 12.4731 55.2737 11.0611C54.8017 9.64915 54.1445 8.61765 53.2723 7.98448C52.4001 7.35131 51.2709 7.02432 49.852 7.02432C48.4332 7.02432 47.2891 7.35131 46.4318 7.98448C45.5595 8.61765 44.9054 9.64915 44.4304 11.0611C43.9584 12.4731 43.6478 14.2835 43.5014 16.4921C43.3371 18.7008 43.2654 21.3999 43.2654 24.5866C43.2654 27.7732 43.3371 30.4724 43.5014 32.6989Z" fill="#202020"/>
<path d="M99.7194 8.74545H89.3301V48.2337H79.7415V8.74545H69.3552V0.921509H99.7194V8.74545Z" fill="#202020"/>
<path d="M122.027 0.921509L134.615 48.2337H124.629L122.427 38.222H109.783L107.581 48.2337H97.5955L110.183 0.921509H122.027ZM120.752 30.4159L116.166 9.14081H116.041L111.438 30.4159H120.752Z" fill="#202020"/>
<path d="M138.674 0.921509H148.26V40.4098H165.236V48.2337H138.674V0.921509Z" fill="#202020"/>
<path d="M188.76 0.921509H198.348V40.4098H215.324V48.2337H188.76V0.921509Z" fill="#202020"/>
<path d="M218.908 14.6848C219.237 11.6586 219.981 9.07246 221.11 6.89947C222.239 4.72649 223.876 3.04398 226.003 1.83115C228.133 0.618323 230.988 0.00299072 234.594 0.00299072C238.199 0.00299072 241.052 0.618323 243.182 1.83115C245.309 3.04398 246.946 4.72649 248.075 6.89947C249.204 9.07246 249.93 11.6616 250.276 14.6848C250.605 17.7079 250.769 21.0224 250.769 24.5866C250.769 28.1507 250.605 31.5217 250.276 34.527C249.948 37.5323 249.204 40.1215 248.075 42.2766C246.946 44.4496 245.309 46.0965 243.182 47.2379C241.052 48.3794 238.196 48.9591 234.594 48.9591C230.991 48.9591 228.133 48.3794 226.003 47.2379C223.876 46.0965 222.239 44.4318 221.11 42.2766C219.981 40.1037 219.255 37.5323 218.908 34.527C218.583 31.5217 218.416 28.2072 218.416 24.5866C218.416 20.9659 218.58 17.7079 218.908 14.6848ZM228.24 32.6989C228.404 34.9253 228.712 36.7357 229.169 38.1298C229.641 39.524 230.298 40.5377 231.171 41.1708C232.043 41.804 233.172 42.131 234.591 42.131C236.01 42.131 237.154 41.804 238.011 41.1708C238.883 40.5377 239.537 39.5062 240.012 38.1298C240.484 36.7357 240.795 34.9253 240.941 32.6989C241.106 30.4724 241.177 27.7554 241.177 24.5866C241.177 21.4178 241.106 18.7216 240.941 16.4921C240.777 14.2835 240.466 12.4731 240.012 11.0611C239.54 9.64915 238.883 8.61765 238.011 7.98448C237.136 7.35131 236.01 7.02432 234.591 7.02432C233.172 7.02432 232.025 7.35131 231.171 7.98448C230.295 8.61765 229.641 9.64915 229.169 11.0611C228.697 12.4731 228.387 14.2835 228.24 16.4921C228.076 18.7008 228.004 21.3999 228.004 24.5866C228.004 27.7732 228.076 30.4724 228.24 32.6989Z" fill="#202020"/>
<path d="M255.934 14.6848C256.26 11.6586 257.006 9.07246 258.135 6.89947C259.265 4.72649 260.901 3.04398 263.028 1.83115C265.158 0.618323 268.014 0.00299072 271.616 0.00299072C275.219 0.00299072 278.077 0.618323 280.204 1.83115C282.334 3.04398 283.971 4.72649 285.1 6.89947C286.229 9.07246 286.955 11.6616 287.302 14.6848C287.627 17.7079 287.795 21.0224 287.795 24.5866C287.795 28.1507 287.63 31.5217 287.302 34.527C286.973 37.5323 286.229 40.1215 285.1 42.2766C283.971 44.4496 282.334 46.0965 280.204 47.2379C278.077 48.3794 275.222 48.9591 271.616 48.9591C268.011 48.9591 265.158 48.3794 263.028 47.2379C260.901 46.0965 259.265 44.4318 258.135 42.2766C257.006 40.1037 256.277 37.5323 255.934 34.527C255.605 31.5217 255.441 28.2072 255.441 24.5866C255.441 20.9659 255.605 17.7079 255.934 14.6848ZM265.266 32.6989C265.43 34.9253 265.738 36.7357 266.195 38.1298C266.67 39.524 267.324 40.5377 268.196 41.1708C269.071 41.804 270.197 42.131 271.616 42.131C273.035 42.131 274.182 41.804 275.037 41.1708C275.912 40.5377 276.566 39.5062 277.038 38.1298C277.51 36.7357 277.821 34.9253 277.964 32.6989C278.128 30.4724 278.203 27.7554 278.203 24.5866C278.203 21.4178 278.131 18.7216 277.964 16.4921C277.8 14.2835 277.492 12.4731 277.038 11.0611C276.563 9.64915 275.909 8.61765 275.037 7.98448C274.164 7.35131 273.035 7.02432 271.616 7.02432C270.197 7.02432 269.053 7.35131 268.196 7.98448C267.324 8.61765 266.67 9.64915 266.195 11.0611C265.723 12.4731 265.412 14.2835 265.266 16.4921C265.101 18.7008 265.03 21.3999 265.03 24.5866C265.03 27.7732 265.101 30.4724 265.266 32.6989Z" fill="#202020"/>
<path d="M302.324 19.8809H302.461L314.58 0.921509H324.954L312.041 21.2007L326.427 48.2337H315.643L305.858 28.8225L302.324 34.1822V48.2337H292.744V0.921509H302.324V19.8809Z" fill="#202020"/>
<path d="M354.333 0.921509L366.926 48.2337H356.937L354.739 38.222H342.097L339.899 48.2337H329.91L342.486 0.921509H354.333ZM353.063 30.4159L348.487 9.14081H348.349L343.752 30.4159H353.063Z" fill="#202020"/>
<path d="M377.982 34.8539C377.982 35.9597 378.072 36.9734 378.254 37.8771C378.436 38.7837 378.753 39.5417 379.252 40.1571C379.75 40.7724 380.408 41.2629 381.223 41.6226C382.038 41.9852 383.081 42.1487 384.303 42.1487C385.775 42.1487 387.09 41.6791 388.267 40.7189C389.467 39.7766 390.035 38.2932 390.035 36.3194C390.035 35.2522 389.898 34.3456 389.605 33.5668C389.309 32.7879 388.834 32.1013 388.177 31.4859C387.499 30.8706 386.615 30.3088 385.527 29.8034C384.44 29.2981 383.105 28.7719 381.519 28.2458C379.389 27.5383 377.555 26.7624 375.969 25.9271C374.427 25.0948 373.116 24.099 372.094 22.9753C371.052 21.8517 370.281 20.5497 369.782 19.0633C369.307 17.58 369.056 15.8767 369.056 13.9207C369.056 9.23289 370.371 5.75492 372.996 3.45708C375.601 1.15925 379.204 0.0177612 383.78 0.0177612C385.91 0.0177612 387.881 0.252598 389.671 0.704437C391.484 1.17411 393.022 1.91727 394.336 2.94877C395.651 3.98027 396.669 5.32092 397.395 6.93208C398.121 8.54324 398.483 10.4814 398.483 12.7257V14.0456H389.285C389.285 11.8012 388.9 10.0623 388.084 8.84942C387.293 7.63659 385.955 7.02126 384.097 7.02126C383.009 7.02126 382.149 7.18475 381.423 7.49093C380.721 7.80009 380.154 8.21328 379.747 8.7216C379.317 9.22992 379.021 9.80958 378.863 10.4784C378.705 11.1473 378.636 11.8191 378.636 12.5266C378.636 13.9921 378.932 15.2049 379.565 16.2007C380.178 17.1965 381.513 18.121 383.553 18.9534L390.937 22.14C392.771 22.9367 394.268 23.769 395.4 24.6192C396.556 25.4872 397.485 26.4117 398.163 27.4075C398.865 28.4033 399.34 29.4883 399.612 30.6833C399.884 31.8783 399.997 33.2011 399.997 34.6666C399.997 39.6636 398.548 43.2843 395.648 45.5672C392.726 47.8472 388.694 48.9709 383.484 48.9709C378.275 48.9709 374.197 47.7937 371.864 45.4573C369.531 43.1208 368.375 39.7528 368.375 35.392V33.4538H377.958V34.848H377.979L377.982 34.8539Z" fill="#202020"/>
<path d="M112.331 88.5009H116.952V73.5992H120.151V88.5009H124.772V69.6516H112.331V88.5009Z" fill="#202020"/>
<path d="M126.92 88.5009H131.541V73.5992H134.743V88.5009H139.382V69.6516H126.92V88.5009Z" fill="#202020"/>
<path d="M160.597 81.5301H162.981V82.8529C162.981 83.2691 162.927 83.6317 162.798 83.9201C162.673 84.2292 162.524 84.4641 162.344 84.6632C162.162 84.8446 161.98 84.9902 161.762 85.0794C161.562 85.1686 161.397 85.2072 161.251 85.2072C160.872 85.2072 160.561 85.0972 160.343 84.8624C160.068 84.5919 159.868 84.1936 159.722 83.6852C159.557 83.1056 159.432 82.4011 159.378 81.5658C159.306 80.7156 159.289 79.7554 159.289 78.7061C159.289 76.5509 159.471 74.9933 159.835 74.0896C160.232 73.076 160.833 72.9481 161.254 72.9481C161.511 72.9481 161.726 73.0016 161.89 73.1295C162.093 73.2751 162.255 73.4743 162.401 73.7091C162.547 73.9618 162.64 74.2353 162.712 74.5236C162.783 74.8328 162.819 75.1389 162.819 75.4481V75.9564H167.294V75.4481C167.294 73.51 166.819 71.9909 165.854 70.9208C165.146 70.1241 164.125 69.6366 162.798 69.4167V67.425H165.944V63.8935H162.798V60.7604H159.25V63.8935H156.101V67.425H159.25V69.5058C158.831 69.6158 158.449 69.7407 158.085 69.922C157.227 70.3382 156.537 70.9892 156.027 71.8245C155.516 72.639 155.172 73.6526 154.972 74.8476C154.772 76.007 154.682 77.3654 154.682 78.8845C154.682 80.4035 154.754 81.8363 154.883 83.0313C155.029 84.2619 155.301 85.3113 155.719 86.1644C156.155 87.0502 156.773 87.7221 157.559 88.1561C158.324 88.5722 159.324 88.7892 160.507 88.7892C161.433 88.7892 162.255 88.6257 162.927 88.3017C163.255 88.1561 163.545 87.9391 163.838 87.6864V88.5009H167.458V77.8738H160.6V81.5301H160.597Z" fill="#202020"/>
<path d="M196.857 69.6516H191.746L187.905 75.6622V69.6516H183.284V88.5009H187.905V82.85L188.67 81.6728L192.108 88.5009H197.329L191.654 77.8173L196.857 69.6516Z" fill="#202020"/>
<path d="M207.74 78.5039C208.176 78.2156 208.522 77.8708 208.812 77.4368C209.323 76.6579 209.577 75.7335 209.577 74.6841C209.577 73.7775 209.43 72.9808 209.159 72.3298C208.866 71.6788 208.469 71.1348 207.958 70.7365C207.447 70.3382 206.847 70.0676 206.139 69.9042C205.484 69.7407 204.738 69.6693 203.973 69.6693H197.422V88.4979H204.027C205.138 88.4979 206.103 88.3344 206.864 88.0461C207.647 87.7369 208.283 87.3029 208.773 86.7797C209.266 86.2536 209.63 85.6204 209.828 84.9159C210.031 84.247 210.12 83.5217 210.12 82.7786C210.12 81.4736 209.792 80.3886 209.12 79.5919C208.737 79.1222 208.262 78.7596 207.737 78.5069M204.442 76.5509C204.077 76.8393 203.441 76.9849 202.551 76.9849H202.022V73.29H202.823C203.605 73.29 204.167 73.4356 204.478 73.7061C204.767 73.9588 204.932 74.4315 204.932 75.1181C204.932 75.8048 204.767 76.2775 204.439 76.548M202.019 80.4778H203.074C203.438 80.4778 203.767 80.5134 204.057 80.5878C204.313 80.6591 204.528 80.7691 204.711 80.9147C204.893 81.0782 205.039 81.2774 205.147 81.5479C205.254 81.8184 205.329 82.1989 205.329 82.6537C205.329 83.5039 205.129 84.0836 204.729 84.3749C204.275 84.7019 203.674 84.8624 202.909 84.8624H202.001V80.4807H202.019V80.4778Z" fill="#202020"/>
<path d="M238.886 69.6516H233.773L229.934 75.6622V69.6516H225.313V88.5009H229.934V82.85L230.699 81.6728L234.137 88.5009H239.358L233.683 77.8173L238.886 69.6516Z" fill="#202020"/>
<path d="M247.256 76.4767H244.051V69.6516H239.43V88.5009H244.051V80.57H247.256V88.5009H251.877V69.6516H247.256V76.4767Z" fill="#202020"/>
<path d="M276.566 78.5604C276.638 78.5247 276.691 78.4712 276.766 78.4147C277.131 78.1264 277.441 77.7994 277.677 77.4367C277.895 77.0741 278.077 76.6936 278.188 76.2953C278.296 75.8969 278.334 75.5164 278.334 75.1716C278.334 73.2899 277.806 71.8958 276.751 71.0426C275.736 70.2103 274.332 69.7941 272.605 69.7941C270.879 69.7941 269.478 70.2103 268.459 71.0426C267.405 71.8928 266.876 73.287 266.876 75.1716C266.876 75.5343 266.93 75.8969 267.022 76.2953C267.112 76.6936 267.279 77.0919 267.515 77.4546C267.754 77.8172 268.062 78.1413 268.426 78.4326C268.498 78.4861 268.552 78.5217 268.626 78.5782C268.062 78.8874 267.608 79.3214 267.261 79.8624C266.714 80.7304 266.422 81.8006 266.422 82.9955C266.422 83.5395 266.493 84.1549 266.625 84.788C266.771 85.4747 267.061 86.1287 267.497 86.7083C267.951 87.3058 268.59 87.7963 269.409 88.1917C270.209 88.5722 271.282 88.7713 272.59 88.7713C273.899 88.7713 274.974 88.5722 275.774 88.1917C276.593 87.8112 277.229 87.3058 277.683 86.7083C278.119 86.1108 278.427 85.4777 278.558 84.788C278.684 84.137 278.759 83.5395 278.759 82.9955C278.759 81.7827 278.484 80.7334 277.919 79.8624C277.612 79.3006 277.137 78.8666 276.575 78.5574M273.501 76.6371C273.28 76.9076 272.99 77.0533 272.608 77.0533C272.226 77.0533 271.936 76.9254 271.718 76.6371C271.479 76.328 271.353 75.8048 271.353 75.0795C271.353 73.1591 272.226 73.1591 272.608 73.1591C272.99 73.1591 273.863 73.1591 273.863 75.0795C273.863 75.7869 273.737 76.328 273.501 76.6371ZM271.135 81.8154C271.192 81.5063 271.282 81.2357 271.41 81.0187C271.518 80.8196 271.682 80.6561 271.864 80.5491C272.046 80.4391 272.3 80.3856 272.608 80.3856C272.916 80.3856 273.173 80.4391 273.352 80.5491C273.555 80.6591 273.698 80.8196 273.806 81.0187C273.931 81.2357 274.027 81.5063 274.081 81.8154C274.134 82.1602 274.17 82.5407 274.17 82.9391C274.17 83.3374 274.134 83.7001 274.081 84.0449C274.027 84.354 273.934 84.6245 273.806 84.8415C273.698 85.0407 273.534 85.2042 273.352 85.3112C273.17 85.4212 272.916 85.4747 272.608 85.4747C272.3 85.4747 272.044 85.4212 271.864 85.3112C271.664 85.2012 271.518 85.0407 271.41 84.8415C271.285 84.6245 271.192 84.354 271.135 84.0449C271.082 83.7001 271.064 83.3196 271.064 82.9391C271.064 82.5586 271.082 82.1602 271.135 81.8154Z" fill="#202020"/>
<path d="M290.119 71.9879C289.647 71.2269 288.989 70.6473 288.189 70.3054C287.424 69.9784 286.441 69.7971 285.297 69.7971C283.878 69.7971 282.734 70.0855 281.913 70.683C281.094 71.2626 280.476 72.0414 280.076 73.0016C279.696 73.9261 279.44 74.9933 279.368 76.1704C279.278 77.3119 279.242 78.5069 279.242 79.7554C279.242 81.3487 279.332 82.7072 279.514 83.8279C279.696 84.9872 280.025 85.9474 280.497 86.6697C280.99 87.4485 281.644 87.9925 282.46 88.3166C283.242 88.6257 284.207 88.7684 285.333 88.7684C286.752 88.7684 287.899 88.4801 288.718 87.9361C289.539 87.3742 290.175 86.6132 290.576 85.6561C290.955 84.7316 291.203 83.6644 291.292 82.4872C291.382 81.3458 291.406 80.1329 291.406 78.9023C291.406 77.3089 291.316 75.9504 291.134 74.8298C290.907 73.6704 290.576 72.7281 290.119 71.9879ZM283.825 80.5164V78.5961C283.825 77.4724 283.861 76.5331 283.914 75.7899C283.968 75.0646 284.061 74.4849 284.186 74.0688C284.297 73.724 284.443 73.4713 284.604 73.3435C284.769 73.2156 284.987 73.1621 285.276 73.1621C285.566 73.1621 285.805 73.2156 285.966 73.3078C286.113 73.397 286.241 73.5961 286.349 73.8874C286.474 74.2501 286.588 74.7733 286.642 75.4273C286.695 76.1139 286.731 77.0206 286.731 78.1234V80.0437C286.731 81.1496 286.695 82.1067 286.642 82.8499C286.588 83.5752 286.495 84.1549 286.367 84.5711C286.259 84.9159 286.113 85.1685 285.949 85.2964C285.784 85.4242 285.569 85.4777 285.276 85.4777C284.984 85.4777 284.748 85.4242 284.586 85.332C284.44 85.2429 284.315 85.0437 284.204 84.7524C284.079 84.3897 283.968 83.8665 283.914 83.2126C283.861 82.5259 283.825 81.6192 283.825 80.5134" fill="#202020"/>
<path d="M302.438 69.7971H297.885L291.792 81.2387V84.8059H298.133V88.5009H302.438V84.8267H304.137V81.0247H302.438V69.8001V69.7971ZM295.914 81.0217L298.112 76.7679V81.0217H295.914Z" fill="#202020"/>
<path d="M317.729 74.051H312.653L309.866 78.0343V69.6516H305.407V88.5009H309.866V84.2441L310.524 83.394L313.197 88.5009H318.159L313.448 79.8803L317.729 74.051Z" fill="#202020"/>
<path d="M335.284 74.919C334.651 74.1045 333.629 73.6883 332.339 73.6883C331.41 73.6883 330.618 73.8875 329.937 74.3036C329.552 74.5385 329.19 74.8655 328.918 75.2459C328.691 74.8833 328.399 74.5771 328.058 74.3393C327.425 73.9231 326.654 73.7061 325.746 73.7061C324.931 73.7061 324.184 73.8518 323.571 74.158C323.3 74.3036 323.028 74.4671 322.78 74.6841V74.051H318.475V88.4979H322.938V79.1549C322.938 78.4861 323.073 78.0135 323.3 77.743C323.548 77.4903 323.843 77.3625 324.25 77.3625C324.725 77.3625 324.838 77.5438 324.883 77.5973C325.041 77.8143 325.11 78.1591 325.11 78.611V88.4979H329.573V79.1549C329.573 78.4861 329.707 78.0135 329.934 77.743C330.182 77.4903 330.478 77.3625 330.887 77.3625C331.362 77.3625 331.475 77.5438 331.52 77.5973C331.679 77.8143 331.747 78.1591 331.747 78.611V88.4979H336.21V78.2334C336.21 76.8214 335.893 75.6978 335.281 74.919" fill="#202020"/>
<path d="M70.5919 69.6516C71.957 69.6516 73.0144 69.9042 73.7582 70.4304C74.502 70.9565 75.0666 71.6432 75.4489 72.5112C75.8313 73.3792 76.0493 74.3929 76.139 75.5165C76.2286 76.658 76.2644 77.8352 76.2644 79.0658C76.2644 80.2965 76.2286 81.4737 76.139 82.6152C76.0493 83.7566 75.8313 84.7525 75.4489 85.6205C75.0666 86.4885 74.502 87.196 73.7582 87.7013C73.0114 88.2275 71.957 88.4801 70.5919 88.4801H63.8081V69.6516H70.5919ZM69.409 84.9516C69.863 84.9516 70.2304 84.8803 70.4813 84.7525C70.7562 84.6246 70.9563 84.3363 71.0997 83.9201C71.246 83.504 71.3386 82.9065 71.3745 82.1276C71.4103 81.3488 71.4283 80.3351 71.4283 79.0688C71.4283 77.8025 71.4103 76.7888 71.3745 76.01C71.3386 75.2312 71.249 74.6337 71.0997 74.2175C70.9533 73.8013 70.7562 73.51 70.4813 73.3852C70.2095 73.2573 69.8451 73.186 69.409 73.186H68.483V84.9546H69.409V84.9516Z" fill="#202020"/>
<path d="M75.87 69.6516H80.9063L82.6567 76.224H82.7105L84.455 69.6516H89.5869L85.0196 81.0753V88.5009H80.3626V81.0753L75.87 69.6516Z" fill="#202020"/>
<path d="M99.3039 72.749L98.4466 70.1955L96.3018 70.9V68.6378H93.6074V70.9L91.4597 70.1955L90.6801 72.749L92.789 73.4356L91.5135 75.246L93.6971 76.8214L94.9546 75.029L96.2092 76.8214L98.4107 75.246L97.1382 73.4356L99.3039 72.749Z" fill="#202020"/>
</g>
<defs>
<clipPath id="clip0_199_241">
<rect width="400" height="88.7892" fill="white"/>
</clipPath>
</defs>
</svg>
